<?xml version="1.0" encoding="utf-8" standalone="no"?>
<!DOCTYPE svg PUBLIC "-//W3C//DTD SVG 1.1//EN" "http://www.w3.org/Graphics/SVG/1.1/DTD/svg11.dtd">
<svg width="3000px" height="3000px" version="1.1" xmlns="http://www.w3.org/2000/svg" xmlns:xlink="http://www.w3.org/1999/xlink">
<g id="bg">
<rect x="0" y="0" width="3000px" height="3000px" style="fill:rgb(255,255,255);"/>
</g>
<g id="ideograms">
<g id="highlighttrack_2">
<path d="M1500.000,420.000 A1080.000,1080.000 40.000 0,1 1980.461,532.758 L1989.358,514.846 A1100.000,1100.000 0.000 0,0 1500.000,400.000 Z" style="stroke-width:1.0;stroke:rgb(82,82,82);stroke-linecap:round;fill:rgb(230,46,230);" />
<path d="M1980.461,532.758 A1080.000,1080.000 40.000 0,1 2215.763,691.246 L2229.018,676.269 A1100.000,1100.000 0.000 0,0 1989.358,514.846 Z" style="stroke-width:1.0;stroke:rgb(82,82,82);stroke-linecap:round;fill:rgb(46,113,230);" />
<path d="M2215.763,691.246 A1080.000,1080.000 40.000 0,1 2267.438,740.106 L2281.650,726.034 A1100.000,1100.000 0.000 0,0 2229.018,676.269 Z" style="stroke-width:1.0;stroke:rgb(82,82,82);stroke-linecap:round;fill:rgb(46,230,214);" />
</g>
<path d="M1500.000,480.000 A1020.000,1020.000 40.000 0,1 2224.803,782.323 L2246.121,761.214 A1050.000,1050.000 0.000 0,0 1500.000,450.000 Z" style="stroke-width:2.0;stroke:rgb(82,82,82);stroke-linecap:round;fill:rgb(230,46,46);" />
<text x="1964.3" y="447.9" font-size="65.0px" font-family="CMUBright-Bold" style="text-anchor:start;fill:rgb(0,0,0);" transform="rotate(292.6,1964.3,447.9)" >AAA</text>
<path d="M1500.000,480.000 A1020.000,1020.000 40.000 0,1 2224.803,782.323 L2246.121,761.214 A1050.000,1050.000 0.000 0,0 1500.000,450.000 Z" style="stroke-width:2.0;stroke:rgb(82,82,82);stroke-linecap:round;fill:none;" />
<g id="highlighttrack_2">
<path d="M2311.107,786.904 A1080.000,1080.000 40.000 0,1 2559.680,1291.483 L2579.303,1287.622 A1100.000,1100.000 0.000 0,0 2326.128,773.699 Z" style="stroke-width:1.0;stroke:rgb(82,82,82);stroke-linecap:round;fill:rgb(230,46,230);" />
<path d="M2559.680,1291.483 A1080.000,1080.000 40.000 0,1 2570.171,1645.375 L2589.989,1648.067 A1100.000,1100.000 0.000 0,0 2579.303,1287.622 Z" style="stroke-width:1.0;stroke:rgb(82,82,82);stroke-linecap:round;fill:rgb(46,113,230);" />
<path d="M2570.171,1645.375 A1080.000,1080.000 40.000 0,1 2541.806,1784.674 L2561.099,1789.946 A1100.000,1100.000 0.000 0,0 2589.989,1648.067 Z" style="stroke-width:1.0;stroke:rgb(82,82,82);stroke-linecap:round;fill:rgb(46,230,214);" />
</g>
<path d="M2266.046,826.521 A1020.000,1020.000 40.000 0,1 2483.928,1768.859 L2512.867,1776.767 A1050.000,1050.000 0.000 0,0 2288.576,806.713 Z" style="stroke-width:2.0;stroke:rgb(82,82,82);stroke-linecap:round;fill:rgb(230,217,46);" />
<text x="2625.9" y="1265.8" font-size="65.0px" font-family="CMUBright-Bold" style="text-anchor:start;fill:rgb(0,0,0);" transform="rotate(347.0,2625.9,1265.8)" >AAC</text>
<path d="M2266.046,826.521 A1020.000,1020.000 40.000 0,1 2483.928,1768.859 L2512.867,1776.767 A1050.000,1050.000 0.000 0,0 2288.576,806.713 Z" style="stroke-width:2.0;stroke:rgb(82,82,82);stroke-linecap:round;fill:none;" />
<g id="highlighttrack_2">
<path d="M2523.112,1845.891 A1080.000,1080.000 40.000 0,1 2155.344,2358.443 L2167.480,2374.340 A1100.000,1100.000 0.000 0,0 2542.059,1852.297 Z" style="stroke-width:1.0;stroke:rgb(82,82,82);stroke-linecap:round;fill:rgb(230,46,230);" />
<path d="M2155.344,2358.443 A1080.000,1080.000 40.000 0,1 1774.368,2544.568 L1779.449,2563.912 A1100.000,1100.000 0.000 0,0 2167.480,2374.340 Z" style="stroke-width:1.0;stroke:rgb(82,82,82);stroke-linecap:round;fill:rgb(46,113,230);" />
<path d="M1774.368,2544.568 A1080.000,1080.000 40.000 0,1 1563.980,2578.103 L1565.165,2598.068 A1100.000,1100.000 0.000 0,0 1779.449,2563.912 Z" style="stroke-width:1.0;stroke:rgb(82,82,82);stroke-linecap:round;fill:rgb(46,230,214);" />
</g>
<path d="M2466.273,1826.675 A1020.000,1020.000 40.000 0,1 1560.425,2518.209 L1562.203,2548.156 A1050.000,1050.000 0.000 0,0 2494.693,1836.283 Z" style="stroke-width:2.0;stroke:rgb(82,82,82);stroke-linecap:round;fill:rgb(46,230,61);" />
<text x="2177.4" y="2429.3" font-size="65.0px" font-family="CMUBright-Bold" style="text-anchor:start;fill:rgb(0,0,0);" transform="rotate(52.6,2177.4,2429.3)" >AAG</text>
<path d="M2466.273,1826.675 A1020.000,1020.000 40.000 0,1 1560.425,2518.209 L1562.203,2548.156 A1050.000,1050.000 0.000 0,0 2494.693,1836.283 Z" style="stroke-width:2.0;stroke:rgb(82,82,82);stroke-linecap:round;fill:none;" />
<g id="highlighttrack_2">
<path d="M1500.000,2580.000 A1080.000,1080.000 40.000 0,1 1287.995,2558.987 L1284.069,2578.598 A1100.000,1100.000 0.000 0,0 1500.000,2600.000 Z" style="stroke-width:1.0;stroke:rgb(82,82,82);stroke-linecap:round;fill:rgb(46,230,61);" />
<path d="M1287.995,2558.987 A1080.000,1080.000 40.000 0,1 1150.741,2521.968 L1144.274,2540.893 A1100.000,1100.000 0.000 0,0 1284.069,2578.598 Z" style="stroke-width:1.0;stroke:rgb(82,82,82);stroke-linecap:round;fill:rgb(230,217,46);" />
<path d="M1150.741,2521.968 A1080.000,1080.000 40.000 0,1 1084.239,2496.766 L1076.540,2515.225 A1100.000,1100.000 0.000 0,0 1144.274,2540.893 Z" style="stroke-width:1.0;stroke:rgb(82,82,82);stroke-linecap:round;fill:rgb(230,46,46);" />
</g>
<path d="M1500.000,2520.000 A1020.000,1020.000 40.000 0,1 1107.337,2441.390 L1095.788,2469.078 A1050.000,1050.000 0.000 0,0 1500.000,2550.000 Z" style="stroke-width:2.0;stroke:rgb(82,82,82);stroke-linecap:round;fill:rgb(46,230,214);" />
<text x="1299.3" y="2632.4" font-size="65.0px" font-family="CMUBright-Bold" style="text-anchor:end;fill:rgb(0,0,0);" transform="rotate(-78.7,1299.3,2632.4)" >CCA</text>
<path d="M1500.000,2520.000 A1020.000,1020.000 40.000 0,1 1107.337,2441.390 L1095.788,2469.078 A1050.000,1050.000 0.000 0,0 1500.000,2550.000 Z" style="stroke-width:2.0;stroke:rgb(82,82,82);stroke-linecap:round;fill:none;" />
<g id="highlighttrack_2">
<path d="M1025.920,2470.386 A1080.000,1080.000 40.000 0,1 688.893,2213.096 L673.872,2226.301 A1100.000,1100.000 0.000 0,0 1017.141,2488.356 Z" style="stroke-width:1.0;stroke:rgb(82,82,82);stroke-linecap:round;fill:rgb(46,230,61);" />
<path d="M688.893,2213.096 A1080.000,1080.000 40.000 0,1 501.870,1912.477 L483.386,1920.115 A1100.000,1100.000 0.000 0,0 673.872,2226.301 Z" style="stroke-width:1.0;stroke:rgb(82,82,82);stroke-linecap:round;fill:rgb(230,217,46);" />
<path d="M501.870,1912.477 A1080.000,1080.000 40.000 0,1 428.895,1638.323 L409.059,1640.885 A1100.000,1100.000 0.000 0,0 483.386,1920.115 Z" style="stroke-width:1.0;stroke:rgb(82,82,82);stroke-linecap:round;fill:rgb(230,46,46);" />
</g>
<path d="M1052.258,2416.475 A1020.000,1020.000 40.000 0,1 488.401,1630.639 L458.648,1634.481 A1050.000,1050.000 0.000 0,0 1039.089,2443.430 Z" style="stroke-width:2.0;stroke:rgb(82,82,82);stroke-linecap:round;fill:rgb(46,113,230);" />
<text x="580.7" y="2191.0" font-size="65.0px" font-family="CMUBright-Bold" style="text-anchor:end;fill:rgb(0,0,0);" transform="rotate(-35.7,580.7,2191.0)" >CCC</text>
<path d="M1052.258,2416.475 A1020.000,1020.000 40.000 0,1 488.401,1630.639 L458.648,1634.481 A1050.000,1050.000 0.000 0,0 1039.089,2443.430 Z" style="stroke-width:2.0;stroke:rgb(82,82,82);stroke-linecap:round;fill:none;" />
<g id="highlighttrack_2">
<path d="M422.581,1574.627 A1080.000,1080.000 40.000 0,1 564.693,960.000 L547.372,950.000 A1100.000,1100.000 0.000 0,0 402.629,1576.009 Z" style="stroke-width:1.0;stroke:rgb(82,82,82);stroke-linecap:round;fill:rgb(46,230,61);" />
<path d="M564.693,960.000 A1080.000,1080.000 40.000 0,1 963.083,562.919 L953.140,545.566 A1100.000,1100.000 0.000 0,0 547.372,950.000 Z" style="stroke-width:1.0;stroke:rgb(82,82,82);stroke-linecap:round;fill:rgb(230,217,46);" />
<path d="M963.083,562.919 A1080.000,1080.000 40.000 0,1 1436.020,421.897 L1434.835,401.932 A1100.000,1100.000 0.000 0,0 953.140,545.566 Z" style="stroke-width:1.0;stroke:rgb(82,82,82);stroke-linecap:round;fill:rgb(230,46,46);" />
</g>
<path d="M482.438,1570.481 A1020.000,1020.000 40.000 0,1 1439.575,481.791 L1437.797,451.844 A1050.000,1050.000 0.000 0,0 452.510,1572.554 Z" style="stroke-width:2.0;stroke:rgb(82,82,82);stroke-linecap:round;fill:rgb(230,46,230);" />
<text x="619.7" y="760.0" font-size="65.0px" font-family="CMUBright-Bold" style="text-anchor:end;fill:rgb(0,0,0);" transform="rotate(41.3,619.7,760.0)" >CCG</text>
<path d="M482.438,1570.481 A1020.000,1020.000 40.000 0,1 1439.575,481.791 L1437.797,451.844 A1050.000,1050.000 0.000 0,0 452.510,1572.554 Z" style="stroke-width:2.0;stroke:rgb(82,82,82);stroke-linecap:round;fill:none;" />
</g>
<g id="track_0">
<path d="M 1176.942,2445.301 A 998.980,998.980 0.00 0,1 1115.4,2422.0 L 1115.4,2422.0 1134.5,2376.6 1154.1,2331.1 1174.0,2285.5 1194.4,2239.9 1215.1,2194.2 1236.3,2148.5 1258.0,2102.9 1280.0,2057.3 1302.6,2011.8 1325.5,1966.4 1348.9,1921.1 1372.7,1875.9 1397.0,1830.9 1421.7,1786.0 1446.8,1741.3 1472.4,1696.8 1498.4,1652.6 1524.8,1608.6 1551.6,1564.8 1578.8,1521.3 1606.4,1478.1 1634.4,1435.1 1662.8,1392.5 1691.5,1350.2 1720.6,1308.2 1750.0,1266.6 1779.7,1225.3 1809.8,1184.3 1840.1,1143.8 1870.7,1103.6 1901.6,1063.7 1932.7,1024.3 1964.0,985.2 1995.6,946.6 2027.3,908.3 2059.1,870.5 2091.1,833.1 2123.2,796.0 2155.4,759.4  A 988.980,988.980 0.00 0,1 2202.8,804.1 L 2202.8,804.1 2168.8,838.1 2135.0,872.5 2101.3,907.5 2067.8,943.1 2034.5,979.2 2001.4,1015.9 1968.6,1053.1 1936.1,1090.8 1903.9,1129.1 1872.1,1167.8 1840.6,1207.1 1809.6,1246.9 1779.0,1287.1 1748.9,1327.9 1719.2,1369.1 1690.0,1410.7 1661.3,1452.8 1633.2,1495.3 1605.6,1538.2 1578.5,1581.5 1552.0,1625.1 1526.1,1669.1 1500.8,1713.4 1476.1,1758.0 1451.9,1802.9 1428.4,1848.1 1405.4,1893.4 1383.1,1939.0 1361.4,1984.8 1340.3,2030.7 1319.8,2076.7 1299.9,2122.8 1280.6,2169.0 1261.9,2215.1 1243.8,2261.3 1226.2,2307.5 1209.3,2353.5 1192.8,2399.5 1176.9,2445.3  Z" style="stroke-width: 1.0;  stroke: rgb(115,115,115); fill: rgb(46,230,214); opacity: 0.833;" />
<path d="M 1303.899,2479.543 A 998.980,998.980 0.00 0,1 1176.9,2445.3 L 1176.9,2445.3 1191.4,2404.4 1207.0,2363.6 1223.7,2323.0 1241.5,2282.6 1260.5,2242.7 1280.6,2203.3 1302.0,2164.6 1324.5,2126.7 1348.2,2089.6 1373.2,2053.5 1399.3,2018.5 1426.6,1984.7 1455.1,1952.0 1484.7,1920.7 1515.5,1890.7 1547.4,1862.1 1580.4,1835.0 1614.5,1809.4 1649.5,1785.3 1685.6,1762.9 1722.6,1742.0 1760.5,1722.8 1799.3,1705.2 1838.9,1689.2 1879.2,1675.0 1920.2,1662.3 1961.8,1651.3 2003.9,1641.9 2046.5,1634.1 2089.5,1627.8 2132.9,1623.1 2176.4,1619.8 2220.1,1617.9 2263.9,1617.5 2307.6,1618.3 2351.2,1620.3 2394.5,1623.6 2437.5,1627.8 2480.0,1633.1  A 988.980,988.980 0.00 0,1 2454.0,1760.7 L 2454.0,1760.7 2413.8,1750.2 2373.1,1740.7 2332.0,1732.3 2290.6,1725.1 2249.2,1719.1 2207.7,1714.6 2166.4,1711.5 2125.2,1709.9 2084.4,1710.0 2043.9,1711.7 2004.0,1715.2 1964.6,1720.5 1925.9,1727.5 1888.0,1736.4 1850.8,1747.2 1814.5,1759.8 1779.2,1774.3 1744.9,1790.7 1711.6,1808.9 1679.4,1829.0 1648.3,1851.0 1618.5,1874.7 1589.8,1900.1 1562.4,1927.3 1536.2,1956.1 1511.3,1986.4 1487.7,2018.3 1465.4,2051.6 1444.4,2086.1 1424.8,2122.0 1406.4,2158.9 1389.3,2196.9 1373.5,2235.7 1358.9,2275.3 1345.6,2315.5 1333.5,2356.2 1322.5,2397.2 1312.7,2438.4 1303.9,2479.5  Z" style="stroke-width: 1.0;  stroke: rgb(115,115,115); fill: rgb(46,230,214); opacity: 0.833;" />
<path d="M 1500.000,2498.980 A 998.980,998.980 0.00 0,1 1303.9,2479.5 L 1303.9,2479.5 1311.7,2441.6 1320.0,2403.9 1328.6,2366.8 1337.7,2330.5 1347.1,2295.3 1356.9,2261.5 1367.0,2229.1 1377.4,2198.4 1388.1,2169.6 1399.2,2142.8 1410.5,2118.3 1422.0,2096.0 1433.8,2076.2 1445.8,2058.9 1458.0,2044.3 1470.4,2032.4 1482.9,2023.2 1495.6,2016.9 1508.4,2013.4 1521.2,2012.8 1534.2,2015.0 1547.1,2020.1 1560.1,2028.0 1573.2,2038.6 1586.1,2052.0 1599.1,2068.0 1611.9,2086.6 1624.7,2107.7 1637.4,2131.0 1649.9,2156.6 1662.2,2184.2 1674.3,2213.7 1686.2,2245.0 1697.9,2277.7 1709.2,2311.8 1720.3,2346.9 1731.0,2382.9 1741.3,2419.6 1751.2,2456.5  A 988.980,988.980 0.00 0,1 1558.6,2487.2 L 1558.6,2487.2 1556.3,2449.4 1554.0,2411.8 1551.6,2374.8 1549.2,2338.7 1546.8,2303.6 1544.4,2269.8 1542.0,2237.6 1539.7,2207.1 1537.3,2178.5 1535.0,2152.0 1532.7,2127.7 1530.4,2105.9 1528.2,2086.5 1526.1,2069.7 1524.0,2055.7 1522.0,2044.4 1520.1,2036.0 1518.2,2030.4 1516.4,2027.8 1514.8,2028.1 1513.1,2031.3 1511.6,2037.5 1510.2,2046.5 1508.9,2058.4 1507.7,2073.1 1506.5,2090.5 1505.5,2110.5 1504.5,2132.9 1503.7,2157.8 1502.9,2184.9 1502.3,2214.1 1501.7,2245.2 1501.2,2278.0 1500.8,2312.4 1500.5,2348.1 1500.3,2384.8 1500.1,2422.4 1500.0,2460.5 1500.0,2499.0  Z" style="stroke-width: 1.0;  stroke: rgb(115,115,115); fill: rgb(46,230,214); opacity: 0.833;" />
<path d="M 576.748,1881.533 A 998.980,998.980 0.00 0,1 509.2,1627.9 L 509.2,1627.9 554.3,1621.7 599.6,1614.6 645.1,1606.4 690.8,1597.3 736.5,1587.2 782.2,1575.9 827.7,1563.6 873.1,1550.2 918.3,1535.6 963.1,1519.8 1007.6,1502.8 1051.7,1484.7 1095.2,1465.4 1138.3,1444.9 1180.7,1423.2 1222.5,1400.3 1263.7,1376.2 1304.1,1350.9 1343.7,1324.5 1382.6,1297.0 1420.6,1268.4 1457.7,1238.7 1493.9,1207.9 1529.3,1176.2 1563.7,1143.4 1597.1,1109.7 1629.5,1075.2 1661.0,1039.8 1691.4,1003.7 1720.8,966.8 1749.2,929.3 1776.6,891.2 1803.0,852.6 1828.3,813.5 1852.6,774.0 1875.9,734.3 1898.3,694.4 1919.6,654.3 1940.0,614.3  A 988.980,988.980 0.00 0,1 2155.4,759.4 L 2155.4,759.4 2123.5,795.2 2090.9,831.0 2057.8,866.6 2024.2,902.1 1990.0,937.4 1955.3,972.5 1920.0,1007.4 1884.1,1042.1 1847.8,1076.4 1810.9,1110.4 1773.5,1144.1 1735.5,1177.3 1697.1,1210.2 1658.2,1242.7 1618.7,1274.7 1578.9,1306.3 1538.5,1337.4 1497.7,1368.0 1456.5,1398.1 1414.9,1427.7 1372.9,1456.8 1330.5,1485.3 1287.8,1513.2 1244.7,1540.6 1201.4,1567.4 1157.7,1593.7 1113.8,1619.3 1069.6,1644.4 1025.3,1668.8 980.7,1692.7 936.0,1716.0 891.2,1738.7 846.3,1760.8 801.3,1782.3 756.3,1803.3 711.3,1823.7 666.4,1843.5 621.5,1862.8 576.7,1881.5  Z" style="stroke-width: 1.0;  stroke: rgb(115,115,115); fill: rgb(46,113,230); opacity: 0.833;" />
<path d="M 749.741,2159.600 A 998.980,998.980 0.00 0,1 576.7,1881.5 L 576.7,1881.5 623.0,1862.5 669.6,1843.6 716.3,1824.8 763.3,1806.2 810.4,1787.8 857.8,1769.5 905.3,1751.4 953.0,1733.6 1000.9,1715.9 1049.0,1698.5 1097.2,1681.2 1145.5,1664.3 1194.0,1647.5 1242.6,1631.0 1291.3,1614.8 1340.1,1598.8 1389.0,1583.2 1438.0,1567.7 1487.1,1552.6 1536.3,1537.7 1585.5,1523.2 1634.7,1508.9 1684.0,1494.9 1733.4,1481.2 1782.7,1467.7 1832.1,1454.6 1881.5,1441.8 1930.8,1429.2 1980.2,1416.9 2029.5,1405.0 2078.8,1393.2 2128.0,1381.8 2177.2,1370.7 2226.3,1359.8 2275.3,1349.1 2324.2,1338.7 2373.1,1328.6 2421.8,1318.7 2470.4,1309.1  A 988.980,988.980 0.00 0,1 2480.0,1633.1 L 2480.0,1633.1 2434.7,1627.4 2388.9,1622.3 2342.6,1618.1 2296.0,1614.6 2248.9,1612.1 2201.6,1610.5 2154.0,1609.9 2106.2,1610.3 2058.3,1611.8 2010.3,1614.3 1962.2,1618.0 1914.1,1622.8 1866.0,1628.7 1818.0,1635.8 1770.2,1644.0 1722.5,1653.5 1675.0,1664.1 1627.7,1676.0 1580.7,1689.0 1534.1,1703.2 1487.7,1718.5 1441.8,1735.0 1396.3,1752.7 1351.3,1771.5 1306.7,1791.3 1262.7,1812.2 1219.2,1834.1 1176.3,1857.0 1134.0,1880.9 1092.3,1905.7 1051.3,1931.3 1011.0,1957.7 971.4,1984.8 932.5,2012.6 894.3,2041.1 857.0,2070.1 820.4,2099.5 784.7,2129.4 749.7,2159.6  Z" style="stroke-width: 1.0;  stroke: rgb(115,115,115); fill: rgb(46,113,230); opacity: 0.833;" />
<path d="M 1061.485,2397.589 A 998.980,998.980 0.00 0,1 749.7,2159.6 L 749.7,2159.6 781.7,2132.2 814.5,2105.4 848.1,2079.5 882.4,2054.5 917.4,2030.6 953.0,2008.0 989.1,1986.7 1025.8,1966.9 1062.8,1948.7 1100.2,1932.2 1137.8,1917.4 1175.7,1904.5 1213.8,1893.5 1252.0,1884.5 1290.3,1877.5 1328.6,1872.5 1366.8,1869.7 1404.9,1869.0 1442.9,1870.4 1480.7,1874.0 1518.3,1879.7 1555.5,1887.5 1592.4,1897.4 1628.9,1909.3 1664.9,1923.3 1700.5,1939.3 1735.5,1957.2 1770.0,1976.9 1803.9,1998.4 1837.1,2021.5 1869.6,2046.2 1901.3,2072.4 1932.3,2100.0 1962.5,2128.8 1991.9,2158.6 2020.3,2189.5 2047.9,2221.1 2074.5,2253.4 2100.1,2286.1  A 988.980,988.980 0.00 0,1 1751.2,2456.5 L 1751.2,2456.5 1741.1,2419.1 1730.3,2382.0 1718.8,2345.4 1706.7,2309.7 1694.0,2275.0 1680.7,2241.5 1666.9,2209.5 1652.4,2179.1 1637.4,2150.5 1621.8,2123.8 1605.7,2099.2 1589.1,2076.9 1572.0,2056.8 1554.5,2039.2 1536.5,2024.1 1518.1,2011.6 1499.3,2001.7 1480.2,1994.6 1460.7,1990.1 1441.0,1988.4 1421.0,1989.4 1400.7,1993.2 1380.3,1999.6 1359.7,2008.8 1339.0,2020.5 1318.2,2034.8 1297.4,2051.6 1276.5,2070.7 1255.8,2092.1 1235.1,2115.7 1214.6,2141.3 1194.2,2168.7 1174.1,2197.8 1154.3,2228.5 1134.8,2260.5 1115.8,2293.6 1097.1,2327.7 1079.0,2362.4 1061.5,2397.6  Z" style="stroke-width: 1.0;  stroke: rgb(115,115,115); fill: rgb(46,113,230); opacity: 0.833;" />
<path d="M 1003.362,633.218 A 998.980,998.980 0.00 0,1 1440.8,502.8 L 1440.8,502.8 1443.1,541.1 1445.5,579.2 1447.9,616.7 1450.3,653.4 1452.7,689.0 1455.1,723.3 1457.6,756.0 1460.0,787.0 1462.4,816.1 1464.7,843.1 1467.0,867.9 1469.3,890.3 1471.5,910.2 1473.7,927.5 1475.8,942.0 1477.8,953.8 1479.8,962.8 1481.6,968.8 1483.4,972.0 1485.1,972.2 1486.8,969.4 1488.3,963.8 1489.7,955.3 1491.1,943.9 1492.3,929.7 1493.4,912.9 1494.5,893.4 1495.4,871.4 1496.3,847.1 1497.0,820.5 1497.7,791.8 1498.3,761.2 1498.8,728.9 1499.2,695.1 1499.5,659.9 1499.7,623.7 1499.9,586.6 1500.0,549.0 1500.0,511.0  A 988.980,988.980 0.00 0,1 1940.0,614.3 L 1940.0,614.3 1922.0,649.5 1903.2,684.3 1883.7,718.5 1863.5,751.8 1842.6,784.0 1821.1,815.0 1798.9,844.5 1776.1,872.5 1752.9,898.7 1729.1,923.0 1704.8,945.4 1680.2,965.5 1655.1,983.5 1629.7,999.1 1604.0,1012.4 1578.0,1023.2 1551.8,1031.5 1525.4,1037.2 1498.8,1040.3 1472.2,1040.9 1445.4,1038.9 1418.7,1034.3 1392.0,1027.1 1365.3,1017.4 1338.7,1005.3 1312.3,990.7 1286.1,973.8 1260.1,954.7 1234.4,933.4 1209.1,910.1 1184.1,884.8 1159.5,857.8 1135.4,829.2 1111.8,799.1 1088.8,767.7 1066.4,735.2 1044.7,701.8 1023.6,667.8 1003.4,633.2  Z" style="stroke-width: 1.0;  stroke: rgb(115,115,115); fill: rgb(230,46,230); opacity: 0.833;" />
<path d="M 634.858,1000.510 A 998.980,998.980 0.00 0,1 1003.4,633.2 L 1003.4,633.2 1024.4,669.0 1046.5,704.4 1069.5,739.2 1093.4,773.3 1118.3,806.4 1144.1,838.5 1170.7,869.3 1198.2,898.8 1226.5,926.9 1255.6,953.2 1285.4,977.9 1316.0,1000.8 1347.2,1021.8 1379.1,1040.7 1411.6,1057.6 1444.6,1072.5 1478.2,1085.1 1512.2,1095.6 1546.7,1103.8 1581.6,1109.8 1616.7,1113.6 1652.2,1115.0 1687.9,1114.3 1723.8,1111.3 1759.9,1106.2 1795.9,1098.9 1832.0,1089.6 1868.1,1078.2 1904.0,1064.8 1939.8,1049.6 1975.3,1032.6 2010.6,1013.9 2045.4,993.7 2079.8,972.0 2113.7,949.0 2147.1,924.9 2179.7,899.7 2211.6,873.7 2242.7,847.0  A 988.980,988.980 0.00 0,1 2470.4,1309.1 L 2470.4,1309.1 2424.7,1317.7 2378.6,1325.7 2331.9,1333.1 2284.8,1339.8 2237.3,1345.8 2189.5,1351.0 2141.3,1355.4 2092.8,1358.9 2044.1,1361.5 1995.1,1363.2 1946.0,1364.0 1896.7,1363.9 1847.4,1362.7 1797.9,1360.6 1748.5,1357.5 1699.0,1353.3 1649.6,1348.1 1600.2,1341.9 1550.9,1334.7 1501.8,1326.4 1452.8,1317.2 1404.1,1306.9 1355.5,1295.6 1307.3,1283.3 1259.3,1270.1 1211.7,1255.9 1164.4,1240.8 1117.4,1224.8 1070.9,1208.0 1024.9,1190.3 979.3,1171.8 934.2,1152.5 889.7,1132.6 845.6,1111.9 802.2,1090.7 759.4,1068.8 717.2,1046.5 675.7,1023.7 634.9,1000.5  Z" style="stroke-width: 1.0;  stroke: rgb(115,115,115); fill: rgb(230,46,230); opacity: 0.833;" />
<path d="M 503.408,1569.029 A 998.980,998.980 0.00 0,1 634.9,1000.5 L 634.9,1000.5 678.3,1025.5 721.9,1050.3 765.8,1075.0 809.9,1099.7 854.2,1124.1 898.7,1148.5 943.5,1172.6 988.5,1196.6 1033.6,1220.4 1078.9,1244.0 1124.5,1267.4 1170.1,1290.6 1216.0,1313.6 1262.0,1336.3 1308.2,1358.8 1354.5,1381.0 1400.9,1403.0 1447.4,1424.7 1494.1,1446.2 1540.9,1467.4 1587.8,1488.3 1634.7,1508.9 1681.8,1529.3 1728.9,1549.3 1776.0,1569.1 1823.3,1588.6 1870.5,1607.8 1917.8,1626.8 1965.1,1645.4 2012.4,1663.8 2059.7,1681.8 2107.0,1699.6 2154.3,1717.2 2201.6,1734.4 2248.8,1751.4 2295.9,1768.1 2343.0,1784.6 2390.0,1800.8 2436.9,1816.7  A 988.980,988.980 0.00 0,1 2100.1,2286.1 L 2100.1,2286.1 2072.5,2250.7 2044.0,2215.4 2014.5,2180.5 1984.1,2146.0 1952.7,2111.9 1920.5,2078.4 1887.3,2045.5 1853.1,2013.4 1818.1,1982.0 1782.2,1951.5 1745.5,1921.8 1707.9,1893.2 1669.5,1865.5 1630.3,1838.9 1590.3,1813.4 1549.6,1789.1 1508.2,1765.9 1466.1,1743.9 1423.3,1723.2 1379.9,1703.7 1336.0,1685.5 1291.5,1668.6 1246.6,1653.0 1201.2,1638.6 1155.4,1625.6 1109.3,1613.8 1062.8,1603.4 1016.1,1594.2 969.2,1586.2 922.2,1579.5 875.1,1574.0 828.0,1569.7 781.0,1566.5 734.0,1564.5 687.3,1563.5 640.8,1563.5 594.6,1564.4 548.7,1566.3 503.4,1569.0  Z" style="stroke-width: 1.0;  stroke: rgb(115,115,115); fill: rgb(230,46,230); opacity: 0.833;" />
</g>
<defs>
<pattern id="checker" width="10" height="10" patternTransform="rotate(45 0 0)" patternUnits="userSpaceOnUse"><line x1="0" y1="0" x2="10" y2="0" style="stroke:black;stroke-width:5" /><line x1="0" y1="0" x2="0" y2="10" style="stroke:black;stroke-width:4" /></pattern>
<pattern id="hline-sparse" width="10" height="10" patternTransform="rotate(0 0 0)" patternUnits="userSpaceOnUse"><line x1="0" y1="0" x2="10" y2="0" style="stroke:black;stroke-width:2" /></pattern>
<pattern id="vline" width="10" height="10" patternTransform="rotate(0 0 0)" patternUnits="userSpaceOnUse"><line x1="0" y1="0" x2="0" y2="10" style="stroke:black;stroke-width:5" /></pattern>
<pattern id="hline" width="10" height="10" patternTransform="rotate(0 0 0)" patternUnits="userSpaceOnUse"><line x1="0" y1="0" x2="10" y2="0" style="stroke:black;stroke-width:5" /></pattern>
<pattern id="checker" width="10" height="10" patternTransform="rotate(45 0 0)" patternUnits="userSpaceOnUse"><line x1="0" y1="0" x2="10" y2="0" style="stroke:black;stroke-width:2" /><line x1="0" y1="0" x2="0" y2="10" style="stroke:black;stroke-width:2" /></pattern>
<pattern id="vline-sparse" width="10" height="10" patternTransform="rotate(0 0 0)" patternUnits="userSpaceOnUse"><line x1="0" y1="0" x2="0" y2="10" style="stroke:black;stroke-width:2" /></pattern>
</defs>
</svg>
